<svg width="18" height="18" viewBox="0 0 18 18" fill="none" xmlns="http://www.w3.org/2000/svg">
<g id="coffee-beans 1" clip-path="url(#clip0_23_29)">
<g id="Group">
<g id="Group_2">
<path id="Vector" d="M7.00559 2.78616C6.83944 2.95252 6.69094 3.13098 6.53709 3.30595C8.07669 3.64331 9.59239 4.4331 10.9407 5.5619C11.7001 3.67091 13.1876 2.22468 15.1515 1.55626L16.3926 1.13375C14.0709 -0.846151 9.9803 -0.189044 7.00559 2.78616Z" fill="white"/>
</g>
</g>
<g id="Group_3">
<g id="Group_4">
<path id="Vector_2" d="M17.1585 1.9873L15.4916 2.5548C13.6983 3.1655 12.3643 4.53195 11.7799 6.30816C13.2631 7.80768 14.2747 9.61971 14.6774 11.4773C14.8581 11.319 15.0419 11.1655 15.2135 10.9941C18.0346 8.17253 18.7716 4.36074 17.1585 1.9873Z" fill="white"/>
</g>
</g>
<g id="Group_5">
<g id="Group_6">
<path id="Vector_3" d="M11.3414 15.6315C10.6654 13.5741 8.92643 12.0844 6.80309 11.6644C4.33712 11.1749 2.36471 9.3927 1.55471 7.01276L1.13224 5.77167C-0.84766 8.09332 -0.190061 12.2398 2.78469 15.215C4.63648 17.0668 6.94375 17.9986 8.98261 17.9986C10.0472 17.9986 11.0322 17.7206 11.8468 17.169L11.3414 15.6315Z" fill="white"/>
</g>
</g>
<g id="Group_7">
<g id="Group_8">
<path id="Vector_4" d="M10.9926 7.00706C8.17151 4.18597 4.35937 3.39239 1.98582 5.00568L2.55328 6.67269C3.2427 8.69709 4.91058 10.2129 7.00819 10.6292C9.50457 11.1234 11.5496 12.8832 12.3441 15.3017L12.7062 16.4035C14.6887 14.0824 13.9684 9.98339 10.9926 7.00706Z" fill="white"/>
</g>
</g>
</g>
<defs>
<clipPath id="clip0_23_29">
<rect width="18" height="18" fill="white"/>
</clipPath>
</defs>
</svg>
