<svg width="15" height="19" viewBox="0 0 15 19" fill="none" xmlns="http://www.w3.org/2000/svg">
<path id="Vector" d="M12.5076 2.32124C11.7723 1.67071 10.9107 1.16923 9.97317 0.846225C9.03566 0.523216 8.04116 0.385173 7.04798 0.440187C6.0548 0.495202 5.08292 0.742167 4.18933 1.1666C3.29574 1.59104 2.49842 2.18441 1.84411 2.91192C1.1898 3.63943 0.691677 4.48644 0.378934 5.4033C0.0661914 6.32016 -0.0548727 7.2884 0.0228398 8.25128C0.100552 9.21415 0.375477 10.1523 0.831497 11.0106C1.28752 11.869 1.91545 12.6304 2.67849 13.25C4.42296 14.6581 5.88052 16.3708 6.97586 18.2996C7.02941 18.3957 7.10876 18.4759 7.20548 18.5317C7.3022 18.5875 7.41268 18.6168 7.52518 18.6165C7.63759 18.6164 7.7479 18.5868 7.84439 18.5308C7.94088 18.4748 8.01996 18.3945 8.07325 18.2984L8.12432 18.2053C9.22753 16.2999 10.6821 14.6075 12.4155 13.2126C13.2187 12.5386 13.8647 11.706 14.3104 10.7705C14.756 9.83494 14.991 8.81787 14.9997 7.78715C15.0085 6.75643 14.7907 5.73575 14.361 4.79321C13.9312 3.85067 13.2994 3.00794 12.5076 2.32124ZM7.52518 10.7558C6.90928 10.7558 6.30721 10.5785 5.79511 10.2463C5.28301 9.91405 4.88388 9.44186 4.64818 8.88942C4.41249 8.33698 4.35082 7.72908 4.47098 7.14261C4.59113 6.55614 4.88772 6.01743 5.32322 5.5946C5.75873 5.17178 6.3136 4.88383 6.91766 4.76718C7.52172 4.65052 8.14785 4.71039 8.71687 4.93922C9.28588 5.16805 9.77223 5.55556 10.1144 6.05275C10.4566 6.54994 10.6392 7.13447 10.6392 7.73243C10.6382 8.53398 10.3098 9.30243 9.72604 9.86921C9.14226 10.436 8.35077 10.7548 7.52518 10.7558Z" fill="white"/>
</svg>
