<svg width="18" height="19" viewBox="0 0 18 19" fill="none" xmlns="http://www.w3.org/2000/svg">
<g id="Group 5">
<path id="Vector" d="M17.6098 14.4601C17.0479 13.9839 13.7526 11.8754 13.2049 11.9722C12.9478 12.0183 12.7511 12.2398 12.2246 12.8744C11.9811 13.1868 11.7137 13.4794 11.4249 13.7494C10.8956 13.6202 10.3834 13.4284 9.89872 13.1778C7.99797 12.2427 6.46241 10.6907 5.53757 8.76978C5.28958 8.28005 5.09969 7.76243 4.97186 7.22769C5.23911 6.93584 5.52865 6.66565 5.83779 6.41962C6.46521 5.88762 6.68507 5.69015 6.73071 5.42902C6.8265 4.87428 4.73786 1.54586 4.26857 0.978137C4.07186 0.742991 3.89314 0.585144 3.66429 0.585144C3.00086 0.585144 0 4.33449 0 4.82037C0 4.85999 0.0642857 8.76329 4.94293 13.7787C9.90643 18.7083 13.7694 18.7732 13.8086 18.7732C14.2894 18.7732 18 15.741 18 15.0707C18 14.8394 17.8438 14.6588 17.6098 14.4601Z" fill="white"/>
<path id="Vector_2" d="M13.5 9.0296H14.7857C14.7841 7.65186 14.2418 6.33098 13.2777 5.35676C12.3135 4.38255 11.0063 3.83456 9.64282 3.83301V5.13216C10.6655 5.13319 11.646 5.54414 12.3691 6.27483C13.0922 7.00552 13.4989 7.99625 13.5 9.0296Z" fill="white"/>
<path id="Vector_3" d="M16.7143 9.02961H18C17.9974 6.79079 17.1161 4.64441 15.5494 3.06132C13.9827 1.47823 11.8585 0.587723 9.64282 0.585144V1.88429C11.5176 1.88653 13.315 2.64005 14.6406 3.97958C15.9663 5.3191 16.712 7.13524 16.7143 9.02961Z" fill="white"/>
</g>
</svg>
